<?xml version="1.0" standalone="yes"?>
<svg xmlns="http://www.w3.org/2000/svg" width="512" height="512">
<path style="fill:#ffffff; stroke:none;" d="M0 0L0 206L1 206C12.7084 191.092 21.4908 212.65 26.2438 222C37.7274 244.589 48.9142 267.335 60.2469 290C64.1686 297.843 68.8229 311.318 80.5671 305.397C86.3521 302.48 87.11 281.984 88.4244 276C94.9955 246.084 101.194 216.035 107.2 186C108.95 177.246 109.936 149.735 123.996 153.438C134.113 156.102 136.226 178.359 138.709 187C146.66 214.667 154.677 242.317 162.579 270C165.182 279.122 166.94 297.263 173.139 304.397C175.887 307.559 188.998 306.823 192.775 305.682C197.034 304.396 197.629 297.622 198.72 294C202.138 282.652 205.601 271.248 209.333 260C215.038 242.808 220.334 225.384 225.424 208C227.209 201.904 231.967 193.518 231.357 187.093C230.927 182.561 224.054 179.681 221.09 176.826C215.525 171.466 211.26 164.261 208.699 157C196.717 123.026 226.751 84.7777 263 90.4391C295.443 95.5061 316.484 130.393 302.687 161C299.911 167.158 295.931 173.011 290.91 177.561C288.037 180.165 282.111 182.839 281.618 187.093C280.781 194.318 286.562 204.125 288.576 211C294.866 232.483 302.332 253.624 308.975 275C311.39 282.773 313.203 298.524 318.854 304.397C322.675 308.368 335.803 306 341 306C350.408 264.96 364.338 224.465 376 184C378.348 175.852 379.554 163.968 384.702 157.109C388.137 152.532 394.658 151.739 398.581 156.148C405.178 163.562 405.21 179.592 407.211 189C412.944 215.964 417.943 243.135 424.119 270C426.177 278.954 427.621 288.04 429.65 297C430.348 300.078 430.589 304.632 434.147 305.682C447.489 309.62 451.918 293.471 456.139 284C464.122 266.087 473.509 248.82 481.691 231C485.611 222.463 489.244 209.797 496.213 203.279C501.79 198.062 506.737 201.581 512 205L512 0L0 0z"/>
<path style="fill:#020202; stroke:none;" d="M341 306C335.572 306 323.778 308.218 319.513 304.397C313.655 299.148 311.533 282.48 309.28 275C302.824 253.567 295.053 232.511 288.859 211C286.878 204.122 281.695 195.235 281.987 188.04C282.169 183.546 287.93 181.013 290.91 178.384C296.492 173.462 300.83 166.917 303.536 160C317.149 125.208 290.813 89.1126 254 90.0146C219.165 90.8682 196.648 128.289 209.453 160C212.061 166.46 215.944 172.946 221.09 177.7C223.971 180.361 230.132 182.888 230.882 187.093C231.925 192.941 227.052 201.441 225.424 207C220.334 224.384 215.038 241.808 209.333 259C205.495 270.568 201.85 282.303 198.424 294C197.264 297.963 196.554 304.374 191.892 305.682C187.738 306.848 175.927 307.49 173.139 303.682C167.072 295.396 165.403 278.897 162.579 269C154.868 241.984 147.05 215 139.291 188C136.709 179.016 134.343 154.23 122.999 153.113C108.975 151.732 108.763 177.186 106.8 187C100.857 216.711 94.5126 246.363 88.2106 276C86.8723 282.294 86.1623 302.521 79.7716 305.397C66.9081 311.185 61.8831 292.26 57.7531 284C47.0886 262.671 36.6787 241.19 25.7415 220C22.5032 213.726 18.3037 200.802 9.99923 200.319C3.62572 199.948 0.0696573 205.252 0.0300926 211C-0.0489512 222.484 3.59838 234.642 5.27161 246C8.75336 269.635 14.5289 293.219 16.8302 317C18.3517 332.722 17 349.203 17 365L17 402C17 406.955 15.9468 413.546 18.858 417.891C23.2251 424.409 35.2447 422 42 422L110 422L391 422L467 422C474.223 422 488.497 424.823 493.142 417.891C496.053 413.546 495 406.955 495 402L495 365C495 349.203 493.648 332.722 495.17 317C497.471 293.219 503.247 269.635 506.728 246C508.41 234.587 511.915 222.539 511.981 211C512.013 205.446 509.169 200.354 503 200.203C493.565 199.972 490.168 212.152 486.753 219C476.232 240.097 465.736 261.467 456.139 283C452.453 291.271 446.662 310.829 434.147 305.397C430.699 303.9 430.379 299.216 429.65 296C427.622 287.04 426.177 277.954 424.119 269C418.018 242.459 413.267 215.6 407.424 189C405.347 179.541 405.407 163.926 399.297 156.148C395.884 151.804 388.15 151.999 384.702 156.228C379.444 162.679 378.274 175.109 376 183L353.291 262C349.158 276.382 343.179 291.188 341 306z"/>
<path style="fill:#86641d; stroke:none;" d="M252 109L252 110L261 110L252 109M247.667 110.333L248.333 110.667L247.667 110.333z"/>
<path style="fill:#fdc03c; stroke:none;" d="M123 204L122 204C114.272 231.49 110.279 260.17 103.881 288C101.662 297.652 101.287 310.182 96.6968 318.995C91.7134 328.564 64.3165 329.521 56.3009 323.297C50.4017 318.717 47.4947 309.495 44.2469 303C39.7803 294.067 34.8385 285.22 31 276L30 276L35.9105 315L36 403L476 403C476 359.702 474.039 316.728 482 274L481 274C477.01 283.585 471.64 292.566 467.309 302C464.099 308.99 461.373 318.723 454.957 323.486C446.864 329.494 419.287 328.564 414.303 318.995C409.068 308.944 408.615 294.073 406.4 283C401.148 256.747 396.705 229.916 390 204C384.638 213.867 382.784 227.162 379.849 238C374.688 257.056 369.106 276.009 363.71 295C361.524 302.693 360.394 311.919 356.558 318.985C354.532 322.715 351.138 324.923 347 325.671C336.396 327.586 309.461 329.743 302.703 319.981C295.167 309.095 292.9 290.632 288.975 278C282.132 255.983 274.93 234.076 268.28 212C265.598 203.098 259.821 192.299 259.514 183C259.199 173.467 269.963 171.555 275.985 167.072C283.31 161.618 287.552 153.074 287.961 144C288.733 126.834 277.008 110.857 259 110.039C239.959 109.175 224.937 122.708 225.001 142C225.035 152.506 229.611 161.063 238 167.468C243.713 171.829 254.553 173.642 253.388 183C252.424 190.746 248.612 198.53 246.424 206C240.242 227.115 233.066 247.935 226.72 269C222.089 284.371 219.014 306.568 210.157 319.956C203.5 330.017 179.564 326.689 169 325.91C164.711 325.593 160.4 324.428 157.652 320.891C153.799 315.931 152.83 307.935 151.14 302L139.859 263C134.262 243.476 127.115 223.886 123 204z"/>
<path style="fill:#86641d; stroke:none;" d="M263 110L263 111L266 111L263 110M245 111L246 112L245 111M267 111L268 112L267 111M242 112L243 113L242 112M269 112L270 113L269 112M240 113L241 114L240 113M239 114L240 115L239 114M273 114L274 115L273 114M237 115L238 116L237 115M236 116L237 117L236 116M276 116L277 117L276 116M235 117L236 118L235 117M277 117L278 118L277 117M234 118L235 119L234 118M278 118L279 119L278 118M233 119L234 120L233 119M279 119L280 120L279 119M232 120L233 121L232 120M280 120L281 121L280 120M231 121L232 122L231 121M281 121L282 122L281 121M229 124L230 125L229 124M283 124L284 125L283 124M228 125L229 126L228 125M227 127L228 128L227 127M285.333 127.667L285.667 128.333L285.333 127.667M226 130L227 131L226 130M286 130L287 131L286 130M225.333 132.667L225.667 133.333L225.333 132.667M287 132L287 135L288 135L287 132M224 137L224 146L225 146L224 137M288 137L288 146L289 146L288 137M287 148L287 151L288 151L287 148M225.333 149.667L225.667 150.333L225.333 149.667M226 152L227 153L226 152M286.333 152.667L286.667 153.333L286.333 152.667M227 155L228 156L227 155M285 155L286 156L285 155M228 157L229 158L228 157M284 157L285 158L284 157M229 158L230 159L229 158M230 160L231 161L230 160M282 160L283 161L282 160M231 161L232 162L231 161M281 161L282 162L281 161M232 162L233 163L232 162M233 163L234 164L233 163M234 164L235 165L234 164M279 164L280 165L279 164M235 165L236 166L235 165M236 166L237 167L236 166M276 166L277 167L276 166M275 167L276 168L275 167M239 168L240 169L239 168M240 169L241 170L240 169M272 169L273 170L272 169M242 170L243 171L242 170M270 170L271 171L270 170M245 171L246 172L245 171M267.667 171.333L268.333 171.667L267.667 171.333M247 172L248 173L247 172M265 172L266 173L265 172M249 173L250 174L249 173M262 174L263 175L262 174M251 175L252 176L251 175M252 176L253 177L252 176M260 177L261 178L260 177M253 179L254 180L253 179M259 180L259 185L260 185L259 180M253 181L253 184L254 184L253 181M252 186L253 187L252 186M260.333 186.667L260.667 187.333L260.333 186.667M251 189L252 190L251 189M261.333 189.667L261.667 190.333L261.333 189.667M250.333 192.667L250.667 193.333L250.333 192.667M262 193L263 194L262 193M249.333 195.667L249.667 196.333L249.333 195.667M263 196L264 197L263 196M248 199L249 200L248 199M264.333 199.667L264.667 200.333L264.333 199.667M122 202L121 206L122 206L122 202M247 202L248 203L247 202M265.333 202.667L265.667 203.333L265.333 202.667M389.333 202.667L389.667 203.333L389.333 202.667M390.333 204.667L390.667 205.333L390.333 204.667M123.333 205.667L123.667 206.333L123.333 205.667M246 205L247 206L246 205M266.333 205.667L266.667 206.333L266.333 205.667M388.333 206.667L388.667 207.333L388.333 206.667M120.333 208.667L120.667 209.333L120.333 208.667M245.333 208.667L245.667 209.333L245.333 208.667M391 208L391 211L392 211L391 208M124.333 209.667L124.667 210.333L124.333 209.667M267 209L268 210L267 209M387.333 209.667L387.667 210.333L387.333 209.667M244.333 211.667L244.667 212.333L244.333 211.667M125.333 212.667L125.667 213.333L125.333 212.667M268 212L269 213L268 212M119.333 213.667L119.667 214.333L119.333 213.667M386.333 213.667L386.667 214.333L386.333 213.667M392 213L392 216L393 216L392 213M243 215L244 216L243 215M269.333 215.667L269.667 216.333L269.333 215.667z"/>
<path style="fill:#ffffff; stroke:none;" d="M0 216L0 512L512 512L512 216L511 216C509.581 249.045 499.319 282.161 495.286 315C493.333 330.907 495 347.973 495 364L495 402C495 407.59 495.976 414.384 491.721 418.772C485.9 424.774 471.677 422 464 422L387 422L116 422L47 422C39.8101 422 26.9919 424.464 21.1335 419.566C16.2021 415.444 17 408.761 17 403L17 362C17 326.272 13.3211 293.228 7.41358 258C5.22707 244.961 5.40521 228.04 0 216z"/>
<path style="fill:#86641d; stroke:none;" d="M126 216L127 217L126 216M385.333 216.667L385.667 217.333L385.333 216.667M118 217L118 220L119 220L118 217M242 218L243 219L242 218M270.333 218.667L270.667 219.333L270.333 218.667M393 218L393 221L394 221L393 218M127.333 219.667L127.667 220.333L127.333 219.667M384.333 220.667L384.667 221.333L384.333 220.667M241 221L242 222L241 221M271.333 221.667L271.667 222.333L271.333 221.667M117.333 222.667L117.667 223.333L117.333 222.667M128 223L129 224L128 223M383.333 223.667L383.667 224.333L383.333 223.667M394 223L394 226L395 226L394 223M240.333 224.667L240.667 225.333L240.333 224.667M272.333 224.667L272.667 225.333L272.333 224.667M129.333 226.667L129.667 227.333L129.333 226.667M116.333 227.667L116.667 228.333L116.333 227.667M239.333 227.667L239.667 228.333L239.333 227.667M382.333 227.667L382.667 228.333L382.333 227.667M273 228L274 229L273 228M395 228L395 231L396 231L395 228M130 230L131 231L130 230M238.333 230.667L238.667 231.333L238.333 230.667M274.333 231.667L274.667 232.333L274.333 231.667M381 231L382 232L381 231M115.333 232.667L115.667 233.333L115.333 232.667M131.333 233.667L131.667 234.333L131.333 233.667M396.333 233.667L396.667 234.333L396.333 233.667M237 234L238 235L237 234M275.333 234.667L275.667 235.333L275.333 234.667M380.333 234.667L380.667 235.333L380.333 234.667M114 236L114 239L115 239L114 236M132 237L133 238L132 237M236 237L237 238L236 237M276.333 237.667L276.667 238.333L276.333 237.667M379.333 238.667L379.667 239.333L379.333 238.667M397.333 238.667L397.667 239.333L397.333 238.667M133.333 240.667L133.667 241.333L133.333 240.667M235.333 240.667L235.667 241.333L235.333 240.667M277.333 240.667L277.667 241.333L277.333 240.667M113.333 241.667L113.667 242.333L113.333 241.667M378.333 241.667L378.667 242.333L378.333 241.667M234.333 243.667L234.667 244.333L234.333 243.667M398.333 243.667L398.667 244.333L398.333 243.667M134 244L135 245L134 244M278 244L279 245L278 244M377.333 245.667L377.667 246.333L377.333 245.667M112.333 246.667L112.667 247.333L112.333 246.667M233.333 246.667L233.667 247.333L233.333 246.667M135.333 247.667L135.667 248.333L135.333 247.667M279 247L280 248L279 247M376.333 248.667L376.667 249.333L376.333 248.667M399.333 248.667L399.667 249.333L399.333 248.667M111 250L111 253L112 253L111 250M136.333 250.667L136.667 251.333L136.333 250.667M232 250L233 251L232 250M280.333 250.667L280.667 251.333L280.333 250.667M375.333 252.667L375.667 253.333L375.333 252.667M400 252L400 255L401 255L400 252M231 253L232 254L231 253M281.333 253.667L281.667 254.333L281.333 253.667M137.333 254.667L137.667 255.333L137.333 254.667M110.333 255.667L110.667 256.333L110.333 255.667M374.333 255.667L374.667 256.333L374.333 255.667M230.333 256.667L230.667 257.333L230.333 256.667M282.333 256.667L282.667 257.333L282.333 256.667M138.333 257.667L138.667 258.333L138.333 257.667M401 257L401 260L402 260L401 257M229.333 259.667L229.667 260.333L229.333 259.667M373.333 259.667L373.667 260.333L373.333 259.667M109.333 260.667L109.667 261.333L109.333 260.667M283 260L284 261L283 260M139 261L140 262L139 261M228.333 262.667L228.667 263.333L228.333 262.667M402 262L402 265L403 265L402 262M284 263L285 264L284 263M372 263L373 264L372 263M140.333 264.667L140.667 265.333L140.333 264.667M108.333 265.667L108.667 266.333L108.333 265.667M227 266L228 267L227 266M285.333 266.667L285.667 267.333L285.333 266.667M371.333 266.667L371.667 267.333L371.333 266.667M403 267L403 270L404 270L403 267M141 268L142 269L141 268M107.333 269.667L107.667 270.333L107.333 269.667M226 269L227 270L226 269M286.333 269.667L286.667 270.333L286.333 269.667M370.333 270.667L370.667 271.333L370.333 270.667M142.333 271.667L142.667 272.333L142.333 271.667M225.333 272.667L225.667 273.333L225.333 272.667M287.333 272.667L287.667 273.333L287.333 272.667M404.333 272.667L404.667 273.333L404.333 272.667M29 273L30 274L29 273M369.333 273.667L369.667 274.333L369.333 273.667M481 273L482 274L481 273z"/>
<path style="fill:#fdc03c; stroke:none;" d="M29 274L30 275L29 274z"/>
<path style="fill:#86641d; stroke:none;" d="M106.333 274.667L106.667 275.333L106.333 274.667M29 275L29 278L30 278L31 275L29 275M143 275L144 276L143 275M224.333 275.667L224.667 276.333L224.333 275.667M480 275L481 276L480 275M288 276L289 277L288 276M481 276L481 279L482 279L481 276M31 277L32 278L31 277M368.333 277.667L368.667 278.333L368.333 277.667M405.333 277.667L405.667 278.333L405.333 277.667M479 277L480 278L479 277M144.333 278.667L144.667 279.333L144.333 278.667M223.333 278.667L223.667 279.333L223.333 278.667M32 279L33 280L32 279M105.333 279.667L105.667 280.333L105.333 279.667M289 279L290 280L289 279M478 279L479 280L478 279M367.333 280.667L367.667 281.333L367.333 280.667M30 281L30 284L31 284L30 281M33 281L34 282L33 281M477 281L478 282L477 281M145 282L146 283L145 282M222 282L223 283L222 282M290.333 282.667L290.667 283.333L290.333 282.667M406.333 282.667L406.667 283.333L406.333 282.667M34 283L35 284L34 283M104 283L104 286L105 286L104 283M476 283L477 284L476 283M480 283L480 286L481 286L480 283M366.333 284.667L366.667 285.333L366.333 284.667M35 285L36 286L35 285M146.333 285.667L146.667 286.333L146.333 285.667M221 285L222 286L221 285M291.333 285.667L291.667 286.333L291.333 285.667M475 285L476 286L475 285M31 287L31 290L32 290L31 287M36 287L37 288L36 287M365.333 287.667L365.667 288.333L365.333 287.667M407.333 287.667L407.667 288.333L407.333 287.667M474 287L475 288L474 287M103.333 288.667L103.667 289.333L103.333 288.667M147.333 288.667L147.667 289.333L147.333 288.667M220 288L221 289L220 288M292.333 288.667L292.667 289.333L292.333 288.667M37 289L38 290L37 289M473 289L474 290L473 289M479 289L479 293L480 293L479 289M38 291L39 292L38 291M219.333 291.667L219.667 292.333L219.333 291.667M364.333 291.667L364.667 292.333L364.333 291.667M408 291L408 294L409 294L408 291M472 291L473 292L472 291M148.333 292.667L148.667 293.333L148.333 292.667M293 292L294 293L293 292M32 293L32 296L33 296L32 293M39 293L40 294L39 293M102.333 293.667L102.667 294.333L102.333 293.667M471 293L472 294L471 293M218.333 294.667L218.667 295.333L218.333 294.667M40 295L41 296L40 295M149.333 295.667L149.667 296.333L149.333 295.667M294 295L295 296L294 295M363 295L364 296L363 295M470 295L471 296L470 295M409 296L409 299L410 299L409 296M478 296L478 299L479 299L478 296M41 297L42 298L41 297M101 297L101 300L102 300L101 297M469 297L470 298L469 297M217 298L218 299L217 298M295.333 298.667L295.667 299.333L295.333 298.667M362.333 298.667L362.667 299.333L362.333 298.667M33 299L33 302L34 302L33 299M42 299L43 300L42 299M150 299L151 300L150 299M468 299L469 300L468 299M43 301L44 302L43 301M216 301L217 302L216 301M296.333 301.667L296.667 302.333L296.333 301.667M410 301L410 304L411 304L410 301M467 301L468 302L467 301M100.333 302.667L100.667 303.333L100.333 302.667M151.333 302.667L151.667 303.333L151.333 302.667M361.333 302.667L361.667 303.333L361.333 302.667M44 303L45 304L44 303M466 303L467 304L466 303M477 303L477 306L478 306L477 303M215 304L216 305L215 304M297.333 304.667L297.667 305.333L297.333 304.667M34.3333 305.667L34.6667 306.333L34.3333 305.667M45 305L46 306L45 305M360.333 305.667L360.667 306.333L360.333 305.667M465.333 305.667L465.667 306.333L465.333 305.667M152 306L153 307L152 306M411 306L411 309L412 309L411 306M46 307L47 308L46 307M99.3333 307.667L99.6667 308.333L99.3333 307.667M214.333 307.667L214.667 308.333L214.333 307.667M298 308L299 309L298 308M464 308L465 309L464 308M47 309L48 310L47 309M153.333 309.667L153.667 310.333L153.333 309.667M359.333 309.667L359.667 310.333L359.333 309.667M476 309L476 313L477 313L476 309M213.333 310.667L213.667 311.333L213.333 310.667M463 310L464 311L463 310M35.3333 311.667L35.6667 312.333L35.3333 311.667M48 311L49 312L48 311M299 311L300 312L299 311M412 311L412 314L413 314L412 311M98.3333 312.667L98.6667 313.333L98.3333 312.667M358.333 312.667L358.667 313.333L358.333 312.667M462 312L463 313L462 312M49 313L50 314L49 313M154 313L155 314L154 313M212 314L213 315L212 314M300.333 314.667L300.667 315.333L300.333 314.667M461 314L462 315L461 314M50 315L51 316L50 315M97.3333 316.667L97.6667 317.333L97.3333 316.667M155.333 316.667L155.667 317.333L155.333 316.667M357.333 316.667L357.667 317.333L357.333 316.667M413.333 316.667L413.667 317.333L413.333 316.667M460 316L461 317L460 316M51 317L52 318L51 317M211 317L212 318L211 317M301.333 317.667L301.667 318.333L301.333 317.667M459 318L460 319L459 318M52 319L53 320L52 319M156 319L157 320L156 319M356 319L357 320L356 319M96 320L97 321L96 320M210 320L211 321L210 320M302 320L303 321L302 320M414 320L415 321L414 320M458 320L459 321L458 320M157 321L158 322L157 321M355 321L356 322L355 321M457 321L458 322L457 321M158 322L159 323L158 322M354 322L355 323L354 322M55 323L56 324L55 323M159 323L160 324L159 323M207 323L208 324L207 323M353 323L354 324L353 323M417 323L418 324L417 323M57 324L58 325L57 324M92 324L93 325L92 324M161 324L162 325L161 324M205 324L206 325L205 324M306 324L307 325L306 324M351 324L352 325L351 324M418 324L419 325L418 324M454 324L455 325L454 324M60 325L60 326L89 326L60 325M165 325L165 326L203 326C192.964 321.789 175.911 325 165 325M310 325L310 326L349 326C338.726 321.689 321.172 325 310 325M422 325L422 326L452 326L422 325M120 330L120 331L124 331L120 330z"/>
<path style="fill:#020202; stroke:none;" d="M124 330.454C84.7456 335.623 91.7038 394.584 131 389.816C168.341 385.285 161.413 325.527 124 330.454z"/>
<path style="fill:#86641d; stroke:none;" d="M129 330L129 331L133 331L129 330M250 330L250 331L253 331L250 330z"/>
<path style="fill:#020202; stroke:none;" d="M253 330.443C213.424 336.204 221.525 395.529 261 389.699C298.186 384.207 289.983 325.059 253 330.443z"/>
<path style="fill:#86641d; stroke:none;" d="M259 330L259 331L263 331L259 330M379 330L379 331L382 331L379 330z"/>
<path style="fill:#020202; stroke:none;" d="M382 330.443C342.03 336.262 351.584 396.307 391 389.674C427.735 383.493 418.207 325.172 382 330.443z"/>
<path style="fill:#86641d; stroke:none;" d="M388 330L388 331L392 331L388 330M117.667 331.333L118.333 331.667L117.667 331.333M135 331L136 332L135 331M246.667 331.333L247.333 331.667L246.667 331.333M264.667 331.333L265.333 331.667L264.667 331.333M375.667 331.333L376.333 331.667L375.667 331.333M393.667 331.333L394.333 331.667L393.667 331.333M114 332L115 333L114 332M138 332L139 333L138 332M244 332L245 333L244 332M267 332L268 333L267 332M373 332L374 333L373 332M397 332L398 333L397 332M140 333L141 334L140 333M242 333L243 334L242 333M269 333L270 334L269 333M371 333L372 334L371 333M398 333L399 334L398 333M111 334L112 335L111 334M142 334L143 335L142 334M240 334L241 335L240 334M271 334L272 335L271 334M369 334L370 335L369 334M400 334L401 335L400 334M109 335L110 336L109 335M273 335L274 336L273 335M402 335L403 336L402 335M108 336L109 337L108 336M237 336L238 337L237 336M274 336L275 337L274 336M366 336L367 337L366 336M403 336L404 337L403 336M146 337L147 338L146 337M236 337L237 338L236 337M275 337L276 338L275 337M365 337L366 338L365 337M404 337L405 338L404 337M147 338L148 339L147 338M235 338L236 339L235 338M364 338L365 339L364 338M405 338L406 339L405 338M148 339L149 340L148 339M363 339L364 340L363 339M149 340L150 341L149 340M233 340L234 341L233 340M278 340L279 341L278 340M362 340L363 341L362 340M407 340L408 341L407 340M103 341L104 342L103 341M232 341L233 342L232 341M279 341L280 342L279 341M361 341L362 342L361 341M408 341L409 342L408 341M102 342L103 343L102 342M231 342L232 343L231 342M280 342L281 343L280 342M409 342L410 343L409 342M101 343L102 344L101 343M152 344L153 345L152 344M230 344L231 345L230 344M281 344L282 345L281 344M359 344L360 345L359 344M410 344L411 345L410 344M100 345L101 346L100 345M153 346L154 347L153 346M229 346L230 347L229 346M358 346L359 347L358 346M411 346L412 347L411 346M99 347L100 348L99 347M228 347L229 348L228 347M283 347L284 348L283 347M125 348L125 349L129 349L125 348M154 348L155 349L154 348M254 348L254 349L258 349L254 348M357 348L358 349L357 348M383 348L383 349L387 349L383 348M412 348L413 349L412 348M98.3333 349.667L98.6667 350.333L98.3333 349.667z"/>
<path style="fill:#62cbf6; stroke:none;" d="M122.015 349.858C108.636 355.442 117.643 376.151 130.985 370.851C144.808 365.361 135.804 344.103 122.015 349.858z"/>
<path style="fill:#86641d; stroke:none;" d="M131 349L132 350L131 349z"/>
<path style="fill:#62cbf6; stroke:none;" d="M251.04 349.858C237.529 355.618 247.674 376.916 260.985 370.427C274.235 363.967 264.559 344.094 251.04 349.858z"/>
<path style="fill:#86641d; stroke:none;" d="M380 349L381 350L380 349z"/>
<path style="fill:#62cbf6; stroke:none;" d="M381.004 349.742C367.714 354.885 375.618 376.312 388.996 370.987C402.902 365.451 395.117 344.281 381.004 349.742z"/>
<path style="fill:#86641d; stroke:none;" d="M120 350L121 351L120 350M227 350L228 351L227 350M249 350L250 351L249 350M262 350L263 351L262 350M284 350L285 351L284 350M391 350L392 351L391 350M413 350L414 351L413 350M134 351L135 352L134 351M155 351L156 352L155 351M356 351L357 352L356 351M377 351L378 352L377 351M97.3333 352.667L97.6667 353.333L97.3333 352.667M135 352L136 353L135 352M376 352L377 353L376 352M226.333 353.667L226.667 354.333L226.333 353.667M246 353L247 354L246 353M265 353L266 354L265 353M285.333 353.667L285.667 354.333L285.333 353.667M414.333 353.667L414.667 354.333L414.333 353.667M116 354L117 355L116 354M156 354L156 358L157 358L156 354M355 354L355 358L356 358L355 354M395 354L396 355L395 354M137 355L138 356L137 355M374 355L375 356L374 355M115.333 356.667L115.667 357.333L115.333 356.667M396.333 356.667L396.667 357.333L396.333 356.667M244.333 357.667L244.667 358.333L244.333 357.667M267.333 357.667L267.667 358.333L267.333 357.667M96 358L96 363L97 363L96 358M415 358L415 364L416 364L415 358M138 359L138 362L139 362L138 359M373 359L373 362L374 362L373 359M286 360L287 361L286 360M244.333 361.667L244.667 362.333L244.333 361.667M267.333 361.667L267.667 362.333L267.333 361.667M156 362L156 366L157 366L156 362M396 362L397 363L396 362M115 363L116 364L115 363M355 363L355 367L356 367L355 363M226.333 365.667L226.667 366.333L226.333 365.667M245 365L246 366L245 365M266 365L267 366L266 365M285 365L285 368L286 368L285 365M395 365L396 366L395 365M136 366L137 367L136 366M375 366L376 367L375 366M97 367L98 368L97 367M117 367L118 368L117 367M414.333 367.667L414.667 368.333L414.333 367.667M118 368L119 369L118 368M155.333 368.667L155.667 369.333L155.333 368.667M247 368L248 369L247 368M264 368L265 369L264 368M356.333 368.667L356.667 369.333L356.333 368.667M119 369L120 370L119 369M227.333 369.667L227.667 370.333L227.333 369.667M284.333 369.667L284.667 370.333L284.333 369.667M98 370L99 371L98 370M132 370L133 371L132 370M250 370L251 371L250 370M261 370L262 371L261 370M379 370L380 371L379 370M390 370L391 371L390 370M413.333 370.667L413.667 371.333L413.333 370.667M123 371L124 372L123 371M129.667 371.333L130.333 371.667L129.667 371.333M154 371L155 372L154 371M252.667 371.333L253.333 371.667L252.667 371.333M258.667 371.333L259.333 371.667L258.667 371.333M357.333 371.667L357.667 372.333L357.333 371.667M381.667 371.333L382.333 371.667L381.667 371.333M388 371L389 372L388 371M228 372L229 373L228 372M283 372L284 373L283 372M153 373L154 374L153 373M358 373L359 374L358 373M412 373L413 374L412 373M100 374L101 375L100 374M229 374L230 375L229 374M282 374L283 375L282 374M411 374L412 375L411 374M152 375L153 376L152 375M359 375L360 376L359 375M101 376L102 377L101 376M230 376L231 377L230 376M281 376L282 377L281 376M410 376L411 377L410 376M151 377L152 378L151 377M231 377L232 378L231 377M280 377L281 378L280 377M360 377L361 378L360 377M150 378L151 379L150 378M361 378L362 379L361 378M103 379L104 380L103 379M149 379L150 380L149 379M362 379L363 380L362 379M408 379L409 380L408 379M104 380L105 381L104 380M407 380L408 381L407 380M105 381L106 382L105 381M234 381L235 382L234 381M277 381L278 382L277 381M406 381L407 382L406 381M106 382L107 383L106 382M276 382L277 383L276 382M405 382L406 383L405 382M107 383L108 384L107 383M145 383L146 384L145 383M366 383L367 384L366 383M404 383L405 384L404 383M144 384L145 385L144 384M238 384L239 385L238 384M273 384L274 385L273 384M367 384L368 385L367 384M110 385L111 386L110 385M239 385L240 386L239 385M272 385L273 386L272 385M368 385L369 386L368 385M401 385L402 386L401 385M112 386L113 387L112 386M141 386L142 387L141 386M241 386L242 387L241 386M270 386L271 387L270 386M370 386L371 387L370 386M399 386L400 387L399 386M139 387L140 388L139 387M243 387L244 388L243 387M268 387L269 388L268 387M372 387L373 388L372 387M398 387L399 388L398 387M116 388L117 389L116 388M136.667 388.333L137.333 388.667L136.667 388.333M245 388L246 389L245 388M266 388L267 389L266 388M374.667 388.333L375.333 388.667L374.667 388.333M395.667 388.333L396.333 388.667L395.667 388.333M119 389L120 390L119 389M133.667 389.333L134.333 389.667L133.667 389.333M248.667 389.333L249.333 389.667L248.667 389.333M262.667 389.333L263.333 389.667L262.667 389.333M377.667 389.333L378.333 389.667L377.667 389.333M392 389L393 390L392 389M125 390L125 391L129 391L125 390M254 390L254 391L259 391L254 390M383 390L383 391L388 391L383 390M36 403L36 404L476 404C465.734 399.692 448.158 403 437 403L347 403L36 403z"/>
</svg>
